<svg xmlns="http://www.w3.org/2000/svg"  viewBox="0 0 50 50" width="50px" height="50px" baseProfile="basic"><polygon fill="#ff5757" points="40,18.65 40,44.05 34,47.52 12,34.81 10,31.35 10,5.95 16,2.48 38,15.18"/><polygon fill="#e64e4e" points="38,15.19 34,17.49 12,4.79 16,2.48"/><polygon fill="#b33d3d" points="40,18.65 40,44.05 36,46.36 36,20.96"/><polygon fill="#cc4646" points="40,18.65 36,20.96 34,17.49 38,15.19"/><path fill="#e6e6e6" d="M31,19.23L15,9.99l-2,1.15v18.48l2,3.46l16,9.24l2-1.16V22.69L31,19.23z M31,38.86l-1,0.57l-14-8.08	l-1-1.73V13.45l1-0.57l14,8.08l1,1.73V38.86z"/><polygon fill="#e6e6e6" points="29,22.691 29,25 27,23.845 27,21.536"/><path fill="#e6e6e6" d="M24,25.577l1,1.732v2.309l-1,0.577l-2-1.155l-1-1.732V25l1-0.577 M21,21.536l-2,1.155v4.619l2,3.464	l4,2.309l2-1.155v-4.619l-2-3.464L21,21.536L21,21.536z"/></svg>